<?xml version="1.0" encoding="iso-8859-1"?>
<!-- Generator: Adobe Illustrator 16.0.0, SVG Export Plug-In . SVG Version: 6.00 Build 0)  -->
<!DOCTYPE svg PUBLIC "-//W3C//DTD SVG 1.1//EN" "http://www.w3.org/Graphics/SVG/1.1/DTD/svg11.dtd">
<svg version="1.1" id="Capa_1" xmlns="http://www.w3.org/2000/svg" xmlns:xlink="http://www.w3.org/1999/xlink" x="0px" y="0px"
	 width="187.856px" height="187.857px" viewBox="0 0 187.856 187.857" style="enable-background:new 0 0 187.856 187.857;"
	 xml:space="preserve">
<g>
	<path d="M157.142,59.993c-17.448-12.526-38.664-28.607-59.702-34.391c-0.056-0.015-0.104,0.001-0.158-0.01
		c-1.198-1.942-4.694-1.593-4.695,1.229c-0.006,14.395,0.085,28.803,0.41,43.201c-7.289-7.516-20.156-14.569-25.927-18.671
		C52.945,41.31,36.865,30.321,20,25.328c-0.005-4.161-6.449-4.625-6.92-0.693C4.97,48.977,3.263,76.401,1.685,101.817
		c-0.904,14.556-6.061,52.244,7.784,63.071c1.359,1.062,3.095,1.073,4.338,0.349c1.02,0.769,2.457,1.01,3.376,0.119
		c10.186-4.325,19.637-15.742,28.433-22.325c8.783-6.573,17.441-13.284,26.27-19.797c3.128-2.308,15.998-9.704,22.645-16.587
		c1.174,18.504,3.045,36.953,6.091,55.292c0.037-0.017,0.073-0.032,0.111-0.047c0.088,0.326,0.133,0.652,0.282,0.979
		c1.977,4.316,7.828,1.028,7.135-3.008c-1.458-8.483-2.571-16.993-3.536-25.516c2.243,3.465,4.921,6.59,7.981,9.392
		c1.565,1.433,3.426,3.105,5.497,4.032c-5.435,4.976-10.071,10.566-7.197,13.735c0.189,0.208,0.507,0.272,0.771,0.203
		c0.201-0.052,0.402-0.104,0.604-0.157c0.341-0.09,0.458-0.341,0.456-0.598c0.288,0.066,0.663,0.086,1.169,0.014
		c2.039-0.299,4.635-3.578,6.093-4.824c6.825-5.829,13.993-11.25,20.845-17.049c8.756-7.412,17.337-15.069,25.811-22.802
		c7.049-6.433,18.305-14.33,20.993-23.886c0.078-0.279,0.092-0.55,0.094-0.817C189.846,79.855,164.472,65.255,157.142,59.993z
		 M14.885,159.853c-1.495-6.314-2.594-12.682-3.421-19.081c2.1,1.751,4.196,3.508,6.309,5.244c1.98,1.626,4.034,3.396,6.181,4.999
		C20.885,153.905,17.833,156.815,14.885,159.853z M26.507,148.579c-1.909-1.245-3.847-2.452-5.697-3.756
		c-3.319-2.341-6.54-4.811-9.749-7.298c-0.478-4.242-0.815-8.5-1.042-12.769c2.537,3.606,5.236,7.095,8.168,10.414
		c3.065,3.472,7.113,7.66,11.512,10.571C28.64,146.692,27.556,147.615,26.507,148.579z M33.476,142.386
		c-3.817-2.662-7.83-5.07-11.334-8.285c-4.603-4.225-8.639-8.991-12.311-14.028c-0.149-4.508-0.136-9.027-0.047-13.551
		c6.388,8.791,14.264,16.479,21.594,24.454c1.41,1.534,3.665,5.242,6.207,7.993C36.226,140.119,34.819,141.218,33.476,142.386z
		 M41.026,136.108c-3.129-3.359-8.437-9.832-9.635-10.976c-7.63-7.273-14.923-14.685-21.47-22.924
		c0.127-3.648,0.343-7.301,0.598-10.953c5.774,7.236,12.341,13.845,18.936,20.317c6.061,5.949,12.195,12.936,18.896,18.603
		C45.9,132.143,43.444,134.106,41.026,136.108z M52.239,127.066c-5.438-5.728-12.342-10.597-18.072-15.64
		c-8.355-7.354-16.213-15.038-23.388-23.497c0.375-4.694,0.854-9.387,1.401-14.075c7.503,8.434,15.283,16.626,23.104,24.763
		c7.316,7.612,14.849,16.997,23.564,23.362C56.636,123.667,54.419,125.349,52.239,127.066z M62.56,119.139
		c-7.09-8.418-16.811-15.527-24.694-23.104c-8.643-8.307-16.957-16.927-25.249-25.579c0.484-3.879,1.028-7.752,1.601-11.618
		c14.268,21.311,35.391,38.614,54.16,55.95C66.439,116.237,64.5,117.69,62.56,119.139z M72.746,111.523
		C54.615,91.345,31.383,76.805,14.825,54.936c0.753-4.836,1.573-9.653,2.427-14.456C28.5,50.959,40.664,60.393,52.325,70.4
		c11.78,10.11,20.601,21.933,31.236,32.828C79.983,106.026,76.38,108.793,72.746,111.523z M92.267,97.575
		c1.449-2.464-2.093,0.327-4.726,2.487C83.38,88.856,70.414,79.733,61.773,72.461C47.804,60.707,32.905,50.105,19.175,38.055
		c-0.451-0.396-0.958-0.452-1.414-0.334c0.485-2.663,0.96-5.333,1.472-7.981c14.352,7.465,27.403,16.646,40.502,26.157
		c7.767,5.639,15.25,11.653,22.661,17.748c3.397,2.794,6.615,7.106,10.935,8.331c0.16,4.734,0.37,9.465,0.605,14.192
		C93.289,96.406,92.694,96.847,92.267,97.575z M120.88,145.303c-2.377-0.874-4.864-3.126-6.611-4.611
		c-3.315-2.82-6.358-6.108-8.799-9.71c-0.343-0.506-0.854-0.646-1.315-0.551c-0.371-3.517-0.697-7.035-1.01-10.556
		c0.058,0.145,0.116,0.288,0.228,0.423c4.377,5.332,9.211,10.209,14.273,14.888c2.093,1.933,4.654,4.551,7.387,6.725
		C123.752,142.928,122.327,144.076,120.88,145.303z M129.704,138.186c-0.192,0.172-0.46,0.395-0.764,0.641
		c-2.921-2.118-6.189-4.025-8.771-6.163c-5.294-4.382-10.242-9.223-14.773-14.388c-0.884-1.008-2.122-0.241-2.328,0.789
		c-0.471-5.389-0.829-10.788-1.192-16.188c6.886,6.346,13.433,13.086,19.943,19.8c3.36,3.464,7.31,8.616,11.792,11.986
		C132.307,135.836,131.01,137.016,129.704,138.186z M137.089,131.528c-11.479-11.021-23.435-21.987-35.483-32.307
		c-0.306-4.801-0.571-9.604-0.829-14.408c6.909,6.942,13.847,13.857,20.907,20.644c6.924,6.654,14.052,14.391,22.061,20.071
		C141.524,127.527,139.308,129.529,137.089,131.528z M154.002,116.279c-2.287,2.064-4.575,4.125-6.863,6.188
		c-7.005-7.019-15.663-12.952-23.065-19.398c-8.037-6.999-15.815-14.257-23.484-21.648c-0.298-5.729-0.573-11.461-0.853-17.193
		c9.642,8.976,19.802,17.428,29.758,26.041c8.902,7.701,17.232,16.96,26.766,23.861
		C155.508,114.861,154.756,115.597,154.002,116.279z M159.286,111.079c-7.109-9.243-17.912-16.453-26.848-23.757
		c-11.083-9.06-22.086-18.163-32.921-27.518c-0.133-2.709-0.303-5.415-0.441-8.124c25.433,13.777,44.633,34.186,66.737,52.399
		C163.619,106.447,161.449,108.824,159.286,111.079z M98.935,49.085c-0.294-5.626-0.563-11.253-0.918-16.876
		c30.695,14.599,57.378,35.422,81.437,58.908c-1.128,0.842-2.235,1.762-3.331,2.713c-8.59-10.367-21.544-19.02-31.594-26.822
		c-13.719-10.654-28.39-20.672-44.474-27.379c-1.152-0.481-1.979,1.495-0.849,2.015c16.975,7.8,31.793,19.175,45.988,31.184
		c9.148,7.739,17.163,17.465,26.261,25.358c-0.757,0.755-1.512,1.521-2.259,2.299C146.785,82.538,125.204,61.309,98.935,49.085z"/>
</g>
<g>
</g>
<g>
</g>
<g>
</g>
<g>
</g>
<g>
</g>
<g>
</g>
<g>
</g>
<g>
</g>
<g>
</g>
<g>
</g>
<g>
</g>
<g>
</g>
<g>
</g>
<g>
</g>
<g>
</g>
</svg>
