<?xml version="1.0" encoding="iso-8859-1"?>
<!-- Generator: Adobe Illustrator 16.0.0, SVG Export Plug-In . SVG Version: 6.00 Build 0)  -->
<!DOCTYPE svg PUBLIC "-//W3C//DTD SVG 1.1//EN" "http://www.w3.org/Graphics/SVG/1.1/DTD/svg11.dtd">
<svg version="1.1" id="Capa_1" xmlns="http://www.w3.org/2000/svg" xmlns:xlink="http://www.w3.org/1999/xlink" x="0px" y="0px"
	 width="190.765px" height="190.764px" viewBox="0 0 190.765 190.764" style="enable-background:new 0 0 190.765 190.764;"
	 xml:space="preserve">
<g>
	<g>
		<path d="M44.356,41.74c-0.005-0.058-0.031-0.097-0.04-0.152c0.521-1.419,0.1-3.178-1.35-3.969
			c-3.97-2.164-10.437-0.553-14.781-0.273c-5.607,0.362-11.237,0.686-16.815,1.367c-1.507,0.184-2.407,1.177-2.721,2.298
			c-1.406-0.636-3.322-0.213-4.114,1.721c-6.763,16.505-4.127,39.658-3.529,57.674c-0.149,0.33-0.172,0.733,0.028,1.077
			c0.021,0.73,0.046,1.47,0.058,2.181c0.189,10.768,0.547,21.536,1.111,32.292c0.186,3.534-0.42,10.438,2.876,13.025
			c1.22,0.958,2.878,0.876,3.949,0.09c0.181,0.765,0.979,1.448,1.699,1.625c4.441,1.09,9.184,1.382,13.713,1.954
			c4.353,0.553,10.361,2.74,14.49,0.859c1.286-0.586,1.732-2.184,1.377-3.499c0.77,0.229,1.61,0.179,2.353-0.123
			c0.723,0.074,1.217-0.446,1.4-1.109c0.348-0.491,0.594-1.102,0.647-1.862C47.099,112.422,47.122,76.202,44.356,41.74z
			 M40.737,44.067c-0.274,3.301-0.495,6.656-0.739,9.989c-4.374-3.642-9.533-6.808-14.365-9.609c0.336-0.011,0.674-0.023,1.01-0.033
			C30.616,44.296,36.469,45.184,40.737,44.067z M7.973,69.963c5.929,4.273,11.618,8.872,17.382,13.368
			c3.875,3.022,7.909,6.689,12.342,9.185c-0.12,3.137-0.252,6.275-0.332,9.412c-4.708-3.905-9.896-7.363-14.607-11.219
			C17.876,86.714,13.03,82.681,8.09,78.76C8.014,75.831,7.967,72.894,7.973,69.963z M8.167,81.687
			c4.263,3.598,8.456,7.273,12.613,11.001c5.157,4.623,10.468,9.999,16.511,13.587c-0.062,3.302-0.162,6.607-0.169,9.898
			c-4.626-4.688-10.647-8.678-15.438-12.557c-4.301-3.482-8.628-7.132-13.108-10.481C8.444,89.365,8.289,85.536,8.167,81.687z
			 M8.789,100.535c-0.026-1.283-0.071-2.597-0.11-3.897c3.589,3.095,7.322,6.061,10.875,9.108
			c5.802,4.978,11.31,11.442,17.584,15.961c0.024,2.772,0.049,5.545,0.118,8.305c-4.238-5.245-10.159-9.617-15.054-14.138
			c-4.271-3.945-8.696-7.691-13.308-11.205C8.862,103.291,8.817,101.913,8.789,100.535z M8.979,108.103
			c3.724,3.255,7.325,6.647,10.885,10.108c5.275,5.129,10.344,11.864,16.81,15.454c0.229,0.127,0.476,0.158,0.718,0.145
			c0.079,2.37,0.138,4.747,0.256,7.104c-3.041-2.695-6.258-5.281-9.041-8.006c-6.138-6.013-12.243-12.061-19.019-17.361
			c-0.138-0.108-0.285-0.158-0.429-0.217C9.086,112.92,9.039,110.512,8.979,108.103z M11.39,145.795
			c-0.49,0.062-0.991,0.221-1.416,0.479c-0.011-0.047-0.003-0.086-0.016-0.134c-0.505-1.8-0.236-6.912-0.144-10.936
			c3.602,3.684,7.4,7.288,11.43,10.539C17.943,145.521,14.59,145.386,11.39,145.795z M27.751,146.139
			c-6.147-4.435-12.216-8.841-17.927-13.853c-0.005-0.22-0.004-0.474-0.014-0.668c-0.206-4.031-0.35-8.065-0.492-12.101
			c5.873,4.997,11.283,10.493,16.683,15.995c3.638,3.707,7.552,8.616,12.062,11.879c0.032,0.101,0.05,0.211,0.079,0.314
			C35.27,146.162,31.142,146.221,27.751,146.139z M37.878,87.373c-4.139-2.851-8.566-5.446-12.545-8.336
			c-5.681-4.127-11.375-8.204-17.326-11.912c0.045-2.95,0.183-5.88,0.383-8.791c5.639,3.718,10.902,7.975,16.146,12.252
			c4.117,3.359,8.711,7.87,13.692,10.581C38.121,83.238,37.971,85.297,37.878,87.373z M38.521,75.968
			c-3.943-2.719-8.058-5.273-11.855-8.144c-5.87-4.439-11.705-9.002-18.029-12.773c0.276-2.923,0.684-5.802,1.194-8.644
			c0.22-0.029,0.397-0.135,0.531-0.314c-0.053,0.21,0.071,0.539,0.932,1.4c0.964,0.963,2.288,1.798,3.381,2.629
			c3.696,2.811,7.376,5.643,11.104,8.411c2.947,2.188,8.346,7.404,13.221,9.824C38.842,70.896,38.667,73.424,38.521,75.968z
			 M36.243,61.198c-4.607-2.929-9.048-6.108-13.553-9.188c-1.418-0.969-7.349-6.081-11.117-7.341
			c3.367,0.109,6.742,0.019,10.114-0.093c0.043,0.336,0.216,0.664,0.584,0.904c3.438,2.238,6.716,4.674,9.927,7.227
			c2.495,1.982,4.858,4.26,7.446,6.159c-0.093,1.338-0.206,2.658-0.296,3.999C38.208,62.291,37.107,61.748,36.243,61.198z"/>
		<path d="M188.966,75.47c-0.367-0.696-0.931-1.157-1.568-1.424c0.085-0.31,0.143-0.628,0.173-0.994
			c0.139-1.633-1.281-3.418-2.857-3.754c-4.878-1.04-48.61-3.913-48.043-0.14c-0.104-0.692-1.241-0.667-1.368,0
			c-0.009,0.038-0.015,0.076-0.022,0.115c-0.065,0.349,0.049,0.618,0.335,0.823c2.974,2.133,5.907,2.925,9.262,3.369
			c5.955,3.593,11.651,8.472,17.146,12.642c6.66,5.056,12.918,11.993,19.949,16.61c-0.351,4.244-0.851,8.476-1.513,12.676
			c-4.108-2.828-12.222-2.153-18.349-1.7c-7.158-8.673-17.731-15.283-26.604-21.927c-10.404-7.792-21.041-15.258-31.808-22.535
			c2.725-2.211,5.39-4.482,8.022-6.777c19.467,18.678,42.202,35.166,63.903,50.874c2.049,1.481,4.518-1.801,2.68-3.473
			c-14.409-13.103-30.621-24.223-46.455-35.771c1.428-0.391,2.62-1.509,2.604-3.422c-0.079-10.07-0.423-20.19-1.089-30.239
			c-0.055-0.831-0.391-1.453-0.861-1.878c-0.95-1.701-2.987-2.735-4.982-1.355c-20.895,14.455-38.092,34.361-58.622,49.57
			c-0.992,0.736-1.299,1.781-1.15,2.726c-2.232-1.272-5.592,1.163-3.796,3.585c9.256,12.483,22.911,21.221,35.012,30.72
			c5.074,3.983,10.188,7.918,15.274,11.889c2.151,1.679,4.282,3.381,6.393,5.112c2.269,1.86,2.576,1.74,2.541,0.916
			c0.508,0.948,1.123,1.479,2.146,1.84c2.219,0.781,4.602-1.674,3.867-3.867c-2.548-7.613-14.009-13.299-20.066-17.911
			c-12.994-9.895-26.32-19.258-38.591-30.035c0.341-0.046,0.698-0.155,1.068-0.36c4.785-2.654,9.563-5.629,14.293-8.823
			c7.392,7.507,15.068,14.735,23.095,21.558c5.657,4.809,13.361,12.644,20.974,14.071c-0.34,1.165-0.461,2.53-0.47,3.905
			c-6.241-5.24-15.106-8.827-21.757-12.995c-9.694-6.075-19.465-12.587-27.289-21.014c-1.067-1.149-3.183,0.427-2.203,1.699
			c6.16,7.994,14.165,14.047,22.297,19.911c8.295,5.981,18.876,14.879,28.93,17.789c-0.201,3.841-0.461,7.716-0.198,11.552
			c0.247,3.591,5.23,3.547,5.542,0c0.368-4.191,0.781-8.38,1.228-12.563c0.157-1.47,0.594-3.363,0.747-5.206
			c6.128,1.678,14.604,0.078,20.891,0.128c5.928,0.047,18.025,2.799,23.108-0.973c0.146-0.108,0.205-0.247,0.326-0.365
			c1.569,1.625,4.599,1.667,5.32-1.196c1.931-7.672,2.859-15.541,3.525-23.414C190.473,89.376,191.911,81.058,188.966,75.47z
			 M127.73,47.482c-0.189,3.673-0.345,7.351-0.468,11.028c-1.714-1.927-3.864-3.437-6.236-4.493
			C123.32,51.854,125.561,49.672,127.73,47.482z M119.08,55.797c3.145,1.459,5.755,3.418,8.098,6.294
			c-0.075,2.815-0.152,5.632-0.177,8.443c-4.416-3.274-8.754-6.634-13.022-10.07C115.713,58.924,117.396,57.36,119.08,55.797z
			 M136.082,116.813c-0.143-0.242-0.274-0.49-0.471-0.701c-0.99-1.062-2.499-1.12-3.707-0.515c-0.102-0.119-0.202-0.24-0.345-0.344
			c-7.27-5.28-15.04-9.57-22.146-15.226c-7.469-5.943-14.643-12.267-21.603-18.801c2.58-1.782,5.134-3.649,7.673-5.552
			c8.171,7.716,16.68,15.081,25.272,22.318c6.422,5.409,13.463,12.54,21.226,16.476
			C139.687,114.907,137.596,115.604,136.082,116.813z M146.913,113.897c-0.015-0.398-0.157-0.788-0.487-1.085
			c-7.818-7.051-17.682-12.348-26.031-18.833c-8.021-6.231-15.776-12.787-23.533-19.339c1.641-1.247,3.244-2.556,4.861-3.844
			c9.086,7.417,18.38,14.569,27.629,21.787c8.552,6.674,16.699,14.852,25.604,21.333C152.57,113.86,149.744,113.766,146.913,113.897
			z M182.043,83.342c-1.677-1.246-3.497-2.345-5.155-3.467c-2.38-1.609-4.809-3.147-7.255-4.65
			c4.312,0.325,8.607,0.776,12.852,1.556C182.032,78.852,181.972,81.08,182.043,83.342z M182.352,96.598
			c-4.929-4.805-11.85-8.83-16.839-12.478c-4.828-3.529-9.8-7.313-15.148-10.12c4.279,0.362,8.59,0.57,12.9,0.813
			c3.608,2.276,7.161,4.632,10.64,7.102c2.771,1.968,5.41,4.496,8.403,6.188c0.11,1.702,0.207,3.381,0.177,4.978
			C182.463,94.253,182.401,95.425,182.352,96.598z"/>
	</g>
</g>
<g>
</g>
<g>
</g>
<g>
</g>
<g>
</g>
<g>
</g>
<g>
</g>
<g>
</g>
<g>
</g>
<g>
</g>
<g>
</g>
<g>
</g>
<g>
</g>
<g>
</g>
<g>
</g>
<g>
</g>
</svg>
