<?xml version="1.0" encoding="iso-8859-1"?>
<!-- Generator: Adobe Illustrator 16.0.0, SVG Export Plug-In . SVG Version: 6.00 Build 0)  -->
<!DOCTYPE svg PUBLIC "-//W3C//DTD SVG 1.1//EN" "http://www.w3.org/Graphics/SVG/1.1/DTD/svg11.dtd">
<svg version="1.1" id="Capa_1" xmlns="http://www.w3.org/2000/svg" xmlns:xlink="http://www.w3.org/1999/xlink" x="0px" y="0px"
	 width="190.384px" height="190.383px" viewBox="0 0 190.384 190.383" style="enable-background:new 0 0 190.384 190.383;"
	 xml:space="preserve">
<g>
	<path d="M187.619,31.684c-0.487-3.715-4.214-6.968-7.985-4.582c-13.817,8.738-26.164,19.574-38.788,29.906
		c-11.484,9.399-23.672,16.112-35.79,23.666c0.393-15.824-0.175-31.79-3.918-47.072c-0.848-3.464-4.796-4.638-7.735-3.147
		c-6.842,3.473-13.574,7.163-20.254,10.948c-0.428-0.317-0.873-0.592-1.297-0.917c-1.198-0.919-2.783,1.141-1.614,2.091
		c0.12,0.098,0.244,0.197,0.363,0.294c-13.301,7.637-26.304,15.8-38.904,24.527C25.256,71.86,2.243,86.013,1.135,96.753
		c-0.027,0.046-0.055,0.091-0.082,0.135c-0.84,0.778-1.318,2.298-0.899,3.399c5.063,13.322,24.228,21.99,35.532,29.05
		c10.256,6.406,20.867,12.228,31.133,18.656c8.003,5.013,16.566,12.365,25.29,15.85c2.135,0.853,4.573-0.57,5.699-2.319
		c0.117-0.182,0.234-0.364,0.351-0.545c1.198-1.859,0.727-4.418-0.767-5.944c-0.067-0.067-0.134-0.137-0.2-0.206
		c0.958-0.265,1.81-0.844,2.248-1.745c6.684-13.748,4.214-37.226,4.815-52.806c12.65,15.809,29.387,27.083,43.361,41.717
		c5.279,5.528,17.206,22.667,26.439,20.009c1.453-0.418,2.692-1.548,3.186-2.992c0.203-0.229,0.426-0.399,0.606-0.688
		c8.41-13.438,9.83-32.822,10.958-49.341c0.413-0.562,0.532-1.292,0.137-1.916c0.13-1.896,0.257-3.784,0.397-5.579
		C191.14,78.314,190.64,54.727,187.619,31.684z M92.317,42.916c0.697,3.821,1.178,7.686,1.542,11.571
		c-3.662-2.134-7.297-4.28-10.891-6.494C86.072,46.275,89.179,44.56,92.317,42.916z M88.551,149.092
		c-5.134-3.874-10.931-6.86-16.402-10.218c-10.325-6.334-20.984-12.068-31.276-18.412c-7.928-4.886-15.983-9.538-23.728-14.715
		c-3.058-2.044-5.885-4.334-8.65-6.718c1.831-1.57,3.414-3.625,5.223-5.288c0.294-0.271,0.616-0.513,0.914-0.78
		c1.383,1.61,3.872,2.916,5.364,4.114c6.127,4.923,12.258,9.85,18.241,14.947c7.734,6.591,17.372,11.376,26.073,16.563
		c7.958,4.745,17.189,12.658,26.18,15.699c0.28,2.459,0.739,4.8,1.482,6.93C91.102,150.74,89.925,150.128,88.551,149.092z
		 M90.169,136.668c-7.366-6.476-19.425-11.019-26.775-15.215c-10.684-6.099-20.536-12.457-30.244-19.929
		c-2.107-1.622-10.082-9.34-15.023-11.544c2.803-2.325,5.723-4.521,8.678-6.672c8.122,7.896,17.017,14.833,26.149,21.549
		c11.165,8.211,22.111,17.362,33.836,24.7c1.907,1.193,3.839-1.478,2.345-3.04c-17.075-17.863-41.251-28.627-60.278-44.71
		c2.857-2.036,5.753-3.989,8.64-5.953c18.654,12.05,35.218,28.569,54.977,38.245C91.537,121.258,90.319,129.228,90.169,136.668z
		 M93.493,104.24c-0.087,1.661-0.265,3.468-0.471,5.333c-16.781-12.427-34.553-25.202-52.805-35.59
		c0.246-0.167,0.493-0.343,0.74-0.51c4.003-2.715,8.058-5.368,12.153-7.967c8.086,5.904,15.856,12.222,23.935,18.14
		c4.518,3.308,10.747,8.64,16.98,10.407C93.853,97.467,93.671,100.869,93.493,104.24z M94.295,88.403
		c-5.879-3.118-11.981-5.855-17.619-9.593c-7.192-4.768-14.189-9.821-21.297-14.709c3.183-1.996,6.448-3.871,9.675-5.801
		c5.321,1.339,10.542,5.586,14.716,8.394c4.496,3.026,9.52,7.552,14.878,9.439C94.597,80.229,94.47,84.324,94.295,88.403z
		 M78.388,60.915c-2.96-1.747-6.285-3.641-9.75-4.764c3.602-2.116,7.225-4.196,10.863-6.246c4.693,3.547,9.586,6.87,14.743,9.539
		c0.224,3.547,0.371,7.104,0.409,10.67C89.448,66.77,83.55,63.961,78.388,60.915z M179.105,57.415
		c-4.081-2.737-8.334-5.298-12.348-8.058c3.679-2.88,7.396-5.706,11.22-8.395C178.512,46.439,178.86,51.926,179.105,57.415z
		 M163.909,51.626c4.993,4.072,10.118,8.197,15.375,12.006c0.069,2.442,0.187,4.88,0.211,7.324c-2.49-1.557-5.048-3.029-7.319-4.609
		c-4.761-3.313-9.505-6.655-14.313-9.902C159.866,54.824,161.892,53.23,163.909,51.626z M170.506,149.877
		c-2.454-2.083-4.748-4.375-7.049-6.624c-3.605-3.523-7.114-7.146-10.692-10.697c-14.98-14.872-32.812-26.756-47.861-41.708
		c-0.059-0.058-0.131-0.075-0.191-0.127c0.004-0.08,0.006-0.16,0.009-0.24c2.383-0.311,4.736-0.989,7.056-1.865
		c10.593,9.587,22.602,17.879,34.085,26.367c3.495,2.584,20.377,18.513,27.515,18.571
		C172.356,138.969,171.356,144.394,170.506,149.877z M174.25,128.894c-0.26-0.012-0.535,0.019-0.833,0.123
		c1.645-0.578,0.95-0.476-1.151-1.888c-2.191-1.471-4.376-2.951-6.563-4.429c-6.548-4.422-13.008-8.977-19.468-13.524
		c-10.425-7.34-20.714-15.083-31.555-21.791c3.251-1.5,6.398-3.389,9.417-5.367c12.551,7.835,24.28,17.234,36.001,26.201
		c1.885,1.441,9.404,8.688,15.637,12.538C175.252,123.473,174.758,126.185,174.25,128.894z M176.688,114.995
		c-0.71-0.431-1.339-0.811-1.699-1.049c-5.821-3.853-11.572-7.816-17.34-11.751c-10.478-7.149-20.691-14.932-31.566-21.508
		c2.632-1.792,5.171-3.611,7.524-5.268c0.833-0.586,1.62-1.232,2.444-1.831c8.051,6.735,16.063,13.55,24.436,19.883
		c5.378,4.067,11.224,9.062,17.488,12.603C177.59,109.061,177.167,112.037,176.688,114.995z M178.681,99.781
		c-4.4-2.642-8.934-5.135-13.077-7.979c-9.257-6.353-18.133-13.256-27.029-20.103c2.646-1.974,5.236-4.022,7.825-6.07
		c5.499,5.372,11.454,10.122,17.729,14.583c4.805,3.415,9.869,7.291,15.186,10.274C179.199,93.616,178.977,96.709,178.681,99.781z
		 M179.446,84.645c-3.663-2.185-7.503-4.159-11.047-6.323c-6.989-4.268-13.621-9.025-19.748-14.446
		c2.08-1.663,4.149-3.341,6.219-5.018c5.066,3.722,10.033,7.576,15.017,11.406c2.853,2.193,6.127,5.313,9.62,7.472
		C179.493,80.039,179.493,82.34,179.446,84.645z"/>
</g>
<g>
</g>
<g>
</g>
<g>
</g>
<g>
</g>
<g>
</g>
<g>
</g>
<g>
</g>
<g>
</g>
<g>
</g>
<g>
</g>
<g>
</g>
<g>
</g>
<g>
</g>
<g>
</g>
<g>
</g>
</svg>
