<?xml version="1.0" standalone="no"?>
<!DOCTYPE svg PUBLIC "-//W3C//DTD SVG 20010904//EN"
 "http://www.w3.org/TR/2001/REC-SVG-20010904/DTD/svg10.dtd">
<svg version="1.0" xmlns="http://www.w3.org/2000/svg"
 width="128.000000pt" height="128.000000pt" viewBox="0 0 128.000000 128.000000"
 preserveAspectRatio="xMidYMid meet">
<metadata>
Created by potrace 1.12, written by Peter Selinger 2001-2015
</metadata>
<g transform="translate(0.000000,128.000000) scale(0.100000,-0.100000)"
fill="#000000" stroke="none">
<path d="M647 1129 c-151 -36 -229 -147 -212 -303 l6 -63 -32 -7 c-17 -3 -42
-6 -55 -6 -13 0 -24 -6 -25 -12 -2 -34 2 -139 7 -185 l6 -53 37 0 c64 0 65 -3
71 -170 4 -119 8 -153 20 -160 8 -6 65 -9 125 -8 l110 3 9 166 8 167 79 4 c44
3 82 8 86 11 13 14 16 226 3 242 -9 11 -33 15 -91 15 -44 0 -79 4 -79 9 0 20
20 61 40 81 16 16 33 20 85 20 l64 0 7 36 c9 47 0 182 -13 195 -27 27 -176 37
-256 18z m238 -29 c11 -9 15 -32 15 -81 l0 -69 -47 0 c-124 -1 -183 -43 -191
-134 l-4 -54 43 -6 c24 -3 61 -7 82 -8 31 -3 42 -9 58 -35 12 -18 17 -33 12
-33 -4 0 -16 12 -25 28 -26 40 -22 9 4 -34 12 -21 17 -34 10 -30 -7 4 -20 22
-29 39 -9 18 -18 27 -20 20 -2 -6 8 -30 23 -53 15 -22 24 -43 21 -46 -3 -4
-16 10 -28 30 l-22 37 -26 -23 c-14 -13 -27 -24 -29 -25 -2 -1 4 -13 13 -27
21 -32 4 -35 -19 -4 l-17 23 5 -22 c3 -19 0 -23 -20 -23 -16 0 -24 -6 -24 -17
0 -15 -2 -16 -10 -3 -5 8 -12 12 -15 8 -4 -4 3 -20 16 -37 12 -17 20 -33 17
-37 -4 -3 -11 4 -18 15 -6 12 -15 21 -20 21 -6 0 1 -18 16 -40 14 -21 24 -44
22 -51 -2 -7 -14 5 -26 26 -13 20 -25 35 -29 32 -3 -3 7 -27 22 -52 15 -26 25
-48 23 -51 -3 -2 -15 15 -28 38 -13 23 -25 37 -27 31 -2 -6 10 -33 26 -61 17
-27 31 -58 31 -68 0 -12 -11 -2 -31 30 -17 26 -33 45 -36 42 -3 -3 10 -30 30
-61 21 -30 37 -60 37 -67 0 -12 -55 64 -64 87 -2 6 -6 7 -10 3 -4 -3 11 -35
33 -71 23 -35 41 -68 41 -72 0 -15 -30 18 -55 61 -14 24 -30 44 -35 44 -17 0
-11 -13 25 -59 19 -24 35 -45 35 -47 0 -2 -16 -4 -35 -4 -22 0 -35 5 -35 13 0
8 -11 24 -25 37 -31 29 -33 15 -3 -17 17 -18 18 -23 6 -23 -9 0 -21 7 -28 15
-7 8 -17 15 -22 15 -6 0 -4 -7 3 -16 12 -14 11 -16 -6 -13 -19 4 -20 15 -25
159 -3 85 -9 160 -13 166 -3 6 -29 14 -57 18 l-50 7 0 79 0 78 53 9 52 8 0
106 c0 98 2 108 28 147 32 50 91 90 155 109 58 16 225 12 247 -7z"/>
</g>
</svg>
